<svg width="20" height="20" viewBox="0 0 20 20" fill="none" xmlns="http://www.w3.org/2000/svg">
<path fill-rule="evenodd" clip-rule="evenodd" d="M12.9456 5.30664H7.00067C6.05179 5.30664 5.27979 6.07864 5.27979 7.02753V12.9724C5.27979 13.9213 6.05179 14.6935 7.00067 14.6935H12.9456C13.8945 14.6935 14.6667 13.9215 14.6667 12.9724V7.02753C14.6667 6.07864 13.8947 5.30664 12.9456 5.30664ZM9.97312 13.0904C8.26934 13.0904 6.88312 11.7042 6.88312 10.0002C6.88312 8.29638 8.26934 6.91016 9.97312 6.91016C11.6771 6.91016 13.0633 8.29638 13.0633 10.0002C13.0633 11.7039 11.6769 13.0904 9.97312 13.0904ZM12.4313 6.81754C12.4313 7.22065 12.7593 7.54865 13.1627 7.54865C13.5658 7.54865 13.8938 7.22065 13.8938 6.81754C13.8938 6.41443 13.5658 6.08643 13.1627 6.08643C12.7593 6.08643 12.4313 6.41443 12.4313 6.81754Z" fill="white"/>
<path d="M9.9731 8.21582C8.98955 8.21582 8.18866 9.01626 8.18866 9.99982C8.18866 10.9838 8.98955 11.7845 9.9731 11.7845C10.9571 11.7845 11.7573 10.9838 11.7573 9.99982C11.7573 9.01649 10.9569 8.21582 9.9731 8.21582Z" fill="white"/>
<path fill-rule="evenodd" clip-rule="evenodd" d="M0 9.97311C0 4.46533 4.46533 0 9.97311 0C15.4809 0 19.9462 4.46533 19.9462 9.97311C19.9462 15.4809 15.4809 19.9462 9.97311 19.9462C4.46533 19.9462 0 15.4809 0 9.97311ZM12.9456 15.9992C14.6147 15.9992 15.9722 14.6416 15.9722 12.9725V7.02764C15.9722 5.35875 14.6147 4.00098 12.9456 4.00098H7.00067C5.33178 4.00098 3.974 5.35875 3.974 7.02764V12.9725C3.974 14.6416 5.33178 15.9992 7.00067 15.9992H12.9456Z" fill="white"/>
</svg>
