<svg width="20" height="20" viewBox="0 0 20 20" fill="none" xmlns="http://www.w3.org/2000/svg">
<path d="M9.92885 19.8577C15.4124 19.8577 19.8577 15.4124 19.8577 9.92885C19.8577 4.4453 15.4124 0 9.92885 0C4.4453 0 0 4.4453 0 9.92885C0 15.4124 4.4453 19.8577 9.92885 19.8577Z" fill="#161616"/>
<path fill-rule="evenodd" clip-rule="evenodd" d="M9.37867 14.4065H10.158C10.158 14.4065 10.3934 14.3806 10.5135 14.2511C10.6242 14.1321 10.6206 13.9088 10.6206 13.9088C10.6206 13.9088 10.6054 12.8631 11.0907 12.7091C11.5691 12.5574 12.1834 13.7197 12.8346 14.1666C13.327 14.5049 13.7011 14.4307 13.7011 14.4307L15.4422 14.4065C15.4422 14.4065 16.353 14.3504 15.9211 13.6343C15.8857 13.5757 15.6696 13.1045 14.6266 12.1364C13.535 11.1231 13.6811 11.287 14.9962 9.53426C15.7971 8.46682 16.1173 7.81514 16.0173 7.53603C15.9219 7.27019 15.3328 7.34045 15.3328 7.34045L13.3725 7.35266C13.3725 7.35266 13.2272 7.33284 13.1194 7.39727C13.0141 7.46045 12.9463 7.60771 12.9463 7.60771C12.9463 7.60771 12.636 8.43373 12.2222 9.1362C11.3493 10.6185 11.0003 10.6967 10.8576 10.6047C10.5257 10.3902 10.6086 9.74293 10.6086 9.28311C10.6086 7.84665 10.8265 7.24771 10.1843 7.09266C9.97123 7.04116 9.81442 7.00718 9.26946 7.00169C8.56999 6.99443 7.97796 7.00381 7.64274 7.16806C7.41973 7.27727 7.24769 7.52063 7.35247 7.53461C7.48203 7.55196 7.77548 7.61373 7.93106 7.82558C8.13194 8.09886 8.12486 8.71266 8.12486 8.71266C8.12486 8.71266 8.24026 10.4036 7.8553 10.6137C7.59106 10.7578 7.22858 10.4636 6.45035 9.11886C6.05159 8.43001 5.75053 7.66859 5.75053 7.66859C5.75053 7.66859 5.69247 7.52629 5.58893 7.45019C5.46327 7.35797 5.28769 7.32859 5.28769 7.32859L3.42486 7.34081C3.42486 7.34081 3.14522 7.34859 3.04256 7.47019C2.95123 7.57833 3.0353 7.80204 3.0353 7.80204C3.0353 7.80204 4.49371 11.2141 6.14504 12.9335C7.6592 14.51 9.37867 14.4065 9.37867 14.4065Z" fill="white"/>
</svg>
