<svg width="20" height="20" viewBox="0 0 20 20" fill="none" xmlns="http://www.w3.org/2000/svg">
<path d="M9.92903 19.8582C15.4126 19.8582 19.8579 15.4129 19.8579 9.92934C19.8579 4.44579 15.4126 0.000488281 9.92903 0.000488281C4.44548 0.000488281 0.000183105 4.44579 0.000183105 9.92934C0.000183105 15.4129 4.44548 19.8582 9.92903 19.8582Z" fill="#161616"/>
<path d="M10.7304 13.2958C9.97982 13.2377 9.66443 12.8655 9.07575 12.5082C8.75221 14.2057 8.35681 15.8329 7.18566 16.683C6.82372 14.1174 7.71628 12.1903 8.1308 10.1448C7.42425 8.95542 8.21575 6.56144 9.70602 7.15135C11.5402 7.87666 8.11805 11.5738 10.4154 12.0356C12.8138 12.5177 13.7929 7.874 12.3055 6.36356C10.1565 4.18285 6.05009 6.314 6.55505 9.43577C6.67805 10.199 7.46673 10.4306 6.87009 11.4837C5.49469 11.1791 5.08443 10.0944 5.13717 8.64816C5.2223 6.28091 7.26425 4.62338 9.31239 4.394C11.9027 4.10409 14.3338 5.34515 14.6694 7.78161C15.0469 10.5315 13.5 13.5096 10.7304 13.2958Z" fill="white"/>
</svg>
